<global>
amp_veltrack=0
ampeg_release=0.25

<group>
group_label=PP
lpc_hicc1=63
lpc_locc1=0

<region>
hivel=127
key=A#3
lovel=0
lpc=l6X0QvK0g8OhEzBDPN68wryT10J2xEjC8UenwJqdc0EZVqpBnw8ZwnZIREF6XMvBir8rQgzj/sGL5j9AMNAlQRy+i8GHHKlBL6knQYWM5MCyu5rBPRJeQShyWMETpyVB
lpc_rms=-28.79
sample=Bassflute_sustain_PP_A#3.opus

<region>
hivel=127
key=A#4
lovel=0
lpc=XdXPQbqkPsL9OflBpoLIwVils0HNfyTA8GgFwfyU6EDoe4NA+FHwwFacDz7qYY/AVFshQaG76cCxnO1Ay2rwwL++6D+3wIu+NCYcvV0ZyEDxlIXA8y12vZRWNcDhyjpA
lpc_rms=-30.36
sample=Bassflute_sustain_PP_A#4.opus

<region>
hivel=127
key=A#5
lovel=0
lpc=hN0tQQxuL8Dk4i6/W8Hyv/WpM0ClDoNA7SRcv3Jp5j1HFjxAIGcKQK2rL7zShpu/HK58QGzCpj9OkgM/E/cPP+TWoD9NhfA/W018P8zHSz/fp+0/mQ7SP8KsMz9zZYS/
lpc_rms=-26.45
sample=Bassflute_sustain_PP_A#5.opus

<region>
hivel=127
key=A3
lovel=0
lpc=UAoVQ4JOqsMrhY1DCGw6w785J0Mrc5zCedXqwQ7GYUKO2kdBN3tewgTflEELPIjAAqkwQiGAOcKnX4c826MowMynFEHAKzpBwMRiwHrIV8A/8mXAvYlTQS3D2MHMDYhB
lpc_rms=-26.49
sample=Bassflute_sustain_PP_A3.opus

<region>
hivel=127
key=A4
lovel=0
lpc=R2SoQaceJMKAZABCCtX4webP7EHyOkfB4fiFQNCsmcBgZxpBH8/gwLyUuj4Huw3A3lWgQPZB5cBF6B9Bu+cuwbq0s0BOSmO/IhoyQDNTZz4I1zq/glh7wEIdqD8UMb0/
lpc_rms=-31.55
sample=Bassflute_sustain_PP_A4.opus

<region>
hivel=127
key=A5
lovel=0
lpc=ueW2Qb5Bh8EogRtBpNwWwcWHEkH3LkE/rErkvs5id0AmWOdA2zNywJx19z+kNQvAHFoQQapiFcDaBXpAFaIjQER7Bj9FSSXA2piVQMDLakDzZJJAFEC8v5nbFD9t9xdA
lpc_rms=-23.18
sample=Bassflute_sustain_PP_A5.opus

<region>
hivel=127
key=B3
lovel=0
lpc=s+ubQrHeI8Ors/BCvrudwgo+okJvSznCCkIgwPsh10H8LQ/BhrAmwWCXp0AQ7wfApsF/QYhiq8EHZndAz1wOQRMQb8GTUeA/IAeeQVPGFMHk5JvA4g5lPlJeA8C20JJA
lpc_rms=-33.19
sample=Bassflute_sustain_PP_B3.opus

<region>
hivel=127
key=B4
lovel=0
lpc=lpqLQROK0sGcAIlBBbiEwY2XNUHPFB3AQ/JgwCDTfUBZbz5AOHwJwFEdqb5ClCHAza+rQFKrjsDYLbpAl0F+wA+clT+Cf8e/3M4yvwJtVD9Z8EC/T+M8vusqqT9a9nU/
lpc_rms=-34.48
sample=Bassflute_sustain_PP_B4.opus

<region>
hivel=127
key=B5
lovel=0
lpc=hA3vQfDHj8GE+SxAoJ7+wKs1Nj/igitBruV7wGP2TcCQKmVA0picQCnDtUDfOLnAuXdFQNakn8A96MVAZxHJQJ/LmcCDxOW/KdhCvl7Yb0D27GFAowYnwGHzvL9M20rA
lpc_rms=-20.78
sample=Bassflute_sustain_PP_B5.opus

<region>
hivel=127
key=C#3
lovel=0
lpc=XFo8QhTdxsLly4JCxBgEwkJTH0Lu/5XB2V4lwXI2P0EG8whBFedRwUMtv8CCOKpAKvU2QZF5/8DG4PPAHD7cQPFXJr+eKo8/BN/3PxwHHsByXdG/O5U7QFhfRMDXIO8/
lpc_rms=-39.87
sample=Bassflute_sustain_PP_C#3.opus

<region>
hivel=127
key=C#4
lovel=0
lpc=H6NHQmVzucKo3F9CxwEbwgSWEEKs0zvBV1ytwB3U/0ACx1xB2R1iwTNgoD9OaCvBWfupQbVFxcGyjjxBfD80P8XQlr5vC4xAWyvpv9eInz+Ve6DAy9gDPwB5+8CVihJB
lpc_rms=-34.90
sample=Bassflute_sustain_PP_C#4.opus

<region>
hivel=127
key=C#5
lovel=0
lpc=iZGSQdE0usEpyDBBsaUtwSMyAkFoU2/A24/bP6hner6XZJJAyvnlv6oH7D83jr/AtO/HQEvv4sCb42tAPzbGP6jB4L8wyHA/nna0Pz6yH0AXvH7AZTH+PgLCBcAcpHNA
lpc_rms=-31.47
sample=Bassflute_sustain_PP_C#5.opus

<region>
hivel=127
key=C3
lovel=0
lpc=x9RSQhlb4MJ3DaZCvp83woK4HEL2OZDBCGYSwf2F20CwOSlB+SbowJu7Yb+YTRdAz+2VQEVLzcDiBYi/vyOcP+nr9r+WXwZAJlhvQKMP4sAs9I5Ax/XRvrJpbL+V+vw+
lpc_rms=-37.63
sample=Bassflute_sustain_PP_C3.opus

<region>
hivel=127
key=C4
lovel=0
lpc=4Bc+Q04fzcOM0alDEEKCw/3TfkOeDQ3DW9MLwZ4pYUKjch/BseyHvxb/l8HLnTdBbEonQnnakcKVL8NB0BRXQAQZNUAuqc3AwY+BQUlDkMGV0oVBzwuNwAEBncEfIYhB
lpc_rms=-24.05
sample=Bassflute_sustain_PP_C4.opus

<region>
hivel=127
key=C5
lovel=0
lpc=BS1YQQucssEPfE5BaP8nwb/rMUFifZrAYEwgQF/Hx78Rg+w/l1QtwIW14z/eNnXA+hy4QNxVksChoIlAeFL/v1Knsb8Rr6u+kXXIP9zuD0AbvnO/gQG4v3LxG798ScA/
lpc_rms=-35.37
sample=Bassflute_sustain_PP_C5.opus

<region>
hivel=127
key=C6
lovel=0
lpc=ZD7ZQe2dSsGExnFA4kCowOzenT3d5klAPjMFv1BcOL+spRZB5Bfsv57hOD4lB8zAbkueQI9WLMCuz5s/4GDmQPPekj/OmA/AlRHlvwu3pr5hxz5Asu1KwJ3fwMBQijrA
lpc_rms=-21.11
sample=Bassflute_sustain_PP_C6.opus

<region>
hivel=127
key=D#3
lovel=0
lpc=9uuhQglpI8OIvZhC62CdwCQKAELvH3vBAo8YwS3yjD/7iyRBwMzAwH6FlcDIqaNADnRHQFHq6MDwyB/APZOXQLiCZMAo+Lc/r1tRQbc9lcAdoDDB9GSsP9rHvkBH3wDA
lpc_rms=-38.06
sample=Bassflute_sustain_PP_D#3.opus

<region>
hivel=127
key=D#4
lovel=0
lpc=JzWDQcV97MEgxZhBU9WOwbL8g0G2AQPAuojkwIow60ALwMA9myuHv2StU7/4LIrA6Un4QDgOA8EfK7ZA1RKRwDs3VkCPNBI/bkNPP8/a8L5g+ze/ID/1v1g8CT5YXqw/
lpc_rms=-40.62
sample=Bassflute_sustain_PP_D#4.opus

<region>
hivel=127
key=D#5
lovel=0
lpc=I0GzQYdD3sGKyxNBxQISwePVI0HYardAAVYhwbKA876kl/lA9aNhwC3XN0BNCsjAxZbnQM2Ym771oUq/TcOVv2KEI8B1bQtA22SRQE7msD73tyHAh7MNwF71BcCMGtlA
lpc_rms=-29.04
sample=Bassflute_sustain_PP_D#5.opus

<region>
hivel=127
key=D3
lovel=0
lpc=COClQiaZMcMUw/hCj+iGwgGcgULcWNnBNX+kwYgzzkHY1Z5Bk4/bwflsP8FkjFVB83EzQSFfDMH9X67AjnPLP0+1nD3YHNpA9VAmQCRcCcFWW90/PWhAvwWUGsA8ZlRA
lpc_rms=-34.93
sample=Bassflute_sustain_PP_D3.opus

<region>
hivel=127
key=D4
lovel=0
lpc=5jtQQl1Ov8LUN2JCkU4qwjXsIEKQtpvAoXUZwcE8lUD1OzZBvAJVweMv3UCLPHPBkpS2QeZG9MHbX55BX2JAPmoaKsCU6SRAVpCDvzGjHb6AEShAIgGNwJt79sCGqhFB
lpc_rms=-32.68
sample=Bassflute_sustain_PP_D4.opus

<region>
hivel=127
key=D5
lovel=0
lpc=ykSeQcfeu8GYGFtBkYZmwbkY40CkyhQ/TKe2wHwZVkBcYsJApNkmwOnlW0AuJqnAfjLOQC9TrMA2cQ1AnZqBPyLb47/mkrk/y23/v9kLHEAB9RvADnV+PzDKgr+grIpA
lpc_rms=-31.81
sample=Bassflute_sustain_PP_D5.opus

<region>
hivel=127
key=E3
lovel=0
lpc=UULVQrIeY8NTMwlDUSN4wni/rkKJ6tfBO9sUwnlK0EFqNcpB51zbwY9cmsGRW/tAl3CDQe4FMsBPgC7B62JYQKWjTkCG+8xAaFAjQDE+VcGdyYc/pPJwQEQLfD9ITU6/
lpc_rms=-33.34
sample=Bassflute_sustain_PP_E3.opus

<region>
hivel=127
key=E4
lovel=0
lpc=ue8XQglZesKlceNB/XSlwS/Tq0Ey5pdA9vt4wbVe3EDpWt9ALrKzwJ9EpT4qE+rAuV90QY+2mMHtMC9BkE2lv3Bk2L8q3Y4+C9mBQJbBiD+b+HS/KliYwItdxcAtSRBB
lpc_rms=-32.92
sample=Bassflute_sustain_PP_E4.opus

<region>
hivel=127
key=E5
lovel=0
lpc=ZnJ0QQ+ZUsHY+4RAfUbUwNkofEDvN+o/F37jPoWyBMAqHktAHUnmvjxq0b8XpFe/KkShQHUkJ8BsXHVAXQKTvQEgQsC3re++136TP6ykkT+op2o/5fNhPxUFQL88XRlA
lpc_rms=-27.71
sample=Bassflute_sustain_PP_E5.opus

<region>
hivel=127
key=F#3
lovel=0
lpc=NT2JQsEPGMNF4OVCbsFnwgo9PkL3MAjCOn8TQQIokUGbbSrBT/xBwdwSb0F/hj3BCdQtQc2DD8GlKxlA7iDiQG9KlsFpC7hAArqdQYtCvsDBujrBgTSiQD//2b9DIOM/
lpc_rms=-34.75
sample=Bassflute_sustain_PP_F#3.opus

<region>
hivel=127
key=F#4
lovel=0
lpc=DKTuQSZRWcLVqwxCI0ANwo2OE0JwYD3BJDuYwP2B9kBpC8U+1UVBv1ZpBsCB0r/A/46EQbiokcHqFBlBh3gawT+tFkHurEnAmHOhQA5+OMB/IpA/5QSEwMU7/75DBTBA
lpc_rms=-33.17
sample=Bassflute_sustain_PP_F#4.opus

<region>
hivel=127
key=F#5
lovel=0
lpc=431oQbh5O8HTXp9AWCPUwMVHJUBvmqRA/sMQwCUCHr9v/JtAEjwyPs9sDj8/KWzAv+VJQHAE175ItmFAOwIdvgQMab9zG4M/dhHaP2tjw755Hw2+TiXcPq393z5d0oVA
lpc_rms=-29.38
sample=Bassflute_sustain_PP_F#5.opus

<region>
hivel=127
key=F3
lovel=0
lpc=zO6hQlK3MMM9M+FCGVI/wqc8hUKw7uvBAJy/wSnrykFr+0pBkZ/GwVc3NsG6myBBhz6UQRGmDsFppTvB1Qv3QItl3b4nWuJA43wuv0x+NMHpEZs/R8qjQJ658z0hbfy+
lpc_rms=-35.19
sample=Bassflute_sustain_PP_F3.opus

<region>
hivel=127
key=F4
lovel=0
lpc=ivwQQn9vgsKBERVCAmDiwaqD3EHYDLa+N6lNwTKBBUEqmadAeu3BwOUuFj+Z9gTBD5VYQSq4j8FDq4BBjt7cwKpw4D4tJ4k/6v0cQJrfGEAXfD/A8vqJwN603b8ygqhA
lpc_rms=-32.05
sample=Bassflute_sustain_PP_F4.opus

<region>
hivel=127
key=F5
lovel=0
lpc=G4RRQbwjN8H0m/5A8JHOwAl1VUBHG30/ixICwMnLDMBnR2pAv8GaPnDNxD+h+82/eWqWQOUwJ8BIAXtAQe9APcMvJ8CqW6y++xeLP6jvkT6gLds/0ngxPzZg+L5+dFNA
lpc_rms=-33.22
sample=Bassflute_sustain_PP_F5.opus

<region>
hivel=127
key=G#3
lovel=0
lpc=hpFLQ99M5sOp7q9DzTs+wzMuLkPXUc/CMI4VQQbiLkK76A7Bvgv7wX8ghUFo2ELBl3MCQlndLMIsE3nArnANQkuIAcIUCUBBKMbvQWC1csFTPu3AaYt9P5mi0sA5pMNA
lpc_rms=-25.05
sample=Bassflute_sustain_PP_G#3.opus

<region>
hivel=127
key=G#4
lovel=0
lpc=NxOmQcVwFsIW7clBPQi6wciUs0FLV4PAH7H3wNk+vkCEtQ1A7mEAwPkYOMCISt2/rbobQaUsDcG+bZVA6hMNwdsr/EAhByA/DM0mwBCeE0BGN1DAs9c4QCHVwb9P4Us/
lpc_rms=-36.25
sample=Bassflute_sustain_PP_G#4.opus

<region>
hivel=127
key=G#5
lovel=0
lpc=KBoGQij9w8G3eVJBvak0wRbgHkGOW+4/nt3fwOBUNECBdSlBBERivm8cBUGZRFDAIvr7QLzxsMBCmbq+osmAQPFrVj/5B8a/KkIDQYkSwkDfEk1AC1xsP+I1NsC6UoFA
lpc_rms=-19.98
sample=Bassflute_sustain_PP_G#5.opus

<region>
hivel=127
key=G3
lovel=0
lpc=kwPmQiIugsPAo0NDUgXAwpz4vUKZdnbCmltCP7eKAUL8Um3BcT6wwRgrrUEAXHTAFEQjQdd8q8HziRNBlHugQGLDv8FyazxB9mP/QfuVeMEYL7nBkTSNQZqLSMHQ9h1B
lpc_rms=-30.69
sample=Bassflute_sustain_PP_G3.opus

<region>
hivel=127
key=G4
lovel=0
lpc=gw2UQXIU+cGOzplBRlOUwb5jpUFzdyfBuvBBvmhFnkAy1JO/Z6JjPvsycMCNq3lA4XhOQHmJBMHAWC9Aca16vqcT/z95Wy3ArGUlQPKoW71+EG4/VSh3wJtW4j82wpE/
lpc_rms=-37.50
sample=Bassflute_sustain_PP_G4.opus

<region>
hivel=127
key=G5
lovel=0
lpc=YzYVQYIJEsGz8NBA7BWZwHyVaUDDJBk/VvgEwO0mTb4xYTlA2/ROvyi4kT+bGK+/TVl1QHBwxb/7oGc/sAc1v/qjQD+G0TU/+Rl9P970kT5Qsjw/og7vPj0AtD6nLPY+
lpc_rms=-33.33
sample=Bassflute_sustain_PP_G5.opus

<group>
group_label=FF
lpc_hicc1=127
lpc_locc1=64

<region>
hivel=127
key=A#3
lovel=0
lpc=PAQBQtYmisI6vFhCHDAowgiRNEK79LPBUzOBwGH2FEHQCUA+TqgKwJmpnMBDL0pAKdkcQSeujMHfsw9BRlqBwJvf4UDFFKHAduaPQN2j0MDLYPtAbtX7wP9Wl0D8xoe/
lpc_rms=-22.53
sample=Bassflute_sustain_FF_A#3.opus

<region>
hivel=127
key=A#4
lovel=0
lpc=JWgwQd/sgsF0NRBB74UIwQ8sEEG/ZWTAlc+hPs0K3r+t029AmpElwGoEmD+GAz6/bB4nQK++hcChUS5AW48nwMjREUCKZBzAhBwcQBCuh770Gpk/6jrtv9BCYT+eVcI+
lpc_rms=-26.66
sample=Bassflute_sustain_FF_A#4.opus

<region>
hivel=127
key=A#5
lovel=0
lpc=8b+nQeKCtME/BZtB1g6PweidWkHUmyg9z2+3v09X5D+N0HtAeFsiwKpMRUA1LQ6/qm6rQBLkccATXNtAwf5bwCZNUEDGvmA+lmh8P/Ttkj8LWahAV6xkwOvzdECzuTXA
lpc_rms=-15.77
sample=Bassflute_sustain_FF_A#5.opus

<region>
hivel=127
key=A3
lovel=0
lpc=HvYqQjRYo8IdYTNCmLT6wRS4HkLR3WnBXK9uQBaJDMCIyc9AIiA+wXBAEEEPZCnB2jaAQQOxv8GG2H1BHjAhwPdUy79J6sG/9xtMQeilacBCGUzAHcDUwE0pBD+heYBA
lpc_rms=-19.50
sample=Bassflute_sustain_FF_A3.opus

<region>
hivel=127
key=A4
lovel=0
lpc=JWvoQa7uN8J1X7RBSKigwUWToUGQHbvAwsOfvjM2gbzyF6xAJaa9wDQifkBDuZXAs/Y3QSxnbsGO6z5BkHPjwP0qEEDJtmHAPh5eQPOCxT+yJn2/0lOEwNxZiT9bmDRA
lpc_rms=-19.35
sample=Bassflute_sustain_FF_A4.opus

<region>
hivel=127
key=A5
lovel=0
lpc=lG0fQmhTHsL4ObVBEl26wT+bgkFb+sFADM4LwJXXyD8QmRBBGz3hwKvpeUD2PTjBp/SlQSj2R8DWlARBVwT1v0J98cC7VoZAXZqqP+Bu60DXLEtAS6QmPptYzj88ExrA
lpc_rms=-11.06
sample=Bassflute_sustain_FF_A5.opus

<region>
hivel=127
key=B3
lovel=0
lpc=mhe/QYQXQcL0EBZCRJcRwmnqFkJonm3BzpInwJo+nkB5zky/Pq3rPzgJZMBbk9q/aD0gQejzVMErxQdBJr33wA3o80BBbTnAr30ZPrvamT/7AmS/kglFP4sUDsC5yK0/
lpc_rms=-23.39
sample=Bassflute_sustain_FF_B3.opus

<region>
hivel=127
key=B4
lovel=0
lpc=Ay/fQOEBPMFLluBALNvFwPXA6kA9EhzANWP8vv9Va789jQVAy5Ggv+ZBIj+9UYy/lJ8fQA3eGMAM/5c/UsKWv/zjqj8JFlG/+LaaPTJj8j3eU9g+RP/Yvmq/5D7jS7K+
lpc_rms=-28.64
sample=Bassflute_sustain_FF_B4.opus

<region>
hivel=127
key=B5
lovel=0
lpc=S6MEQlbTzcGg7YNBozehwQN5hkHwgAZAgwqnv2F5vMAH3+1AWvyyPybXvUAv7wTBQM8UQRMGAMHW+wpBrxAZvxZkmEBrxnXA3J9sv2O5LEBEK+dAYRzOv1KA1r++9w3B
lpc_rms=-12.52
sample=Bassflute_sustain_FF_B5.opus

<region>
hivel=127
key=C#3
lovel=0
lpc=bewHQnwSjMI/czBCbAS6waYH0UF1Qf7A3SUkwdjsa0GaATw/Ck5LwTjHtb+rzEJApPFLQVSFWsG+fZFABgMuwK7Lf0DZqQnAV/UqwFugoUBpZmK+SrI0wJ8+Nj+rnKk+
lpc_rms=-30.64
sample=Bassflute_sustain_FF_C#3.opus

<region>
hivel=127
key=C#4
lovel=0
lpc=ypO0QTP9JMKMB75BElyuwWpZp0GIEJI/l1GKwEu3sj+tyVE+NDjOv9OHE8D8MN+/+5OPQFehecDCiJVAp4aFv6HRvb8F10u/qc8OQNkFkz6028U/UOtdwMLtyL+rQB1A
lpc_rms=-23.14
sample=Bassflute_sustain_FF_C#4.opus

<region>
hivel=127
key=C#5
lovel=0
lpc=9SwwQVOcgMGdLeVA4RjTwL0XCUH7ENm/VGsmwJDO776bCpRANfQvwCSa172uOT3AC7u4QA7+XMCVNm0/svCOv9ga/z7j5a8/zeCov8++qD+VCjw/Ep8zv/pSd7/aUF4/
lpc_rms=-25.22
sample=Bassflute_sustain_FF_C#5.opus

<region>
hivel=127
key=C3
lovel=0
lpc=Q4wNQmMymsJLNHZCOg4uwjgpKUL89LfBdDHFPxaJ1EDur0BAL5pUwdDfoEA9H4rASViPQaNRkcH3yxJBe7GPwJx8EL8JXGlAnCvkvwjk5z4CO9U/ch9RwFkj6T/gO7C+
lpc_rms=-33.17
sample=Bassflute_sustain_FF_C3.opus

<region>
hivel=127
key=C4
lovel=0
lpc=vmksQlVtucLrF3hCdmoawomgS0KUxIjBSd6awWHnakFaW+1AuzdJwe5vecAPO4zARETXQUPqlcFTxd4/TgZVwKbOUkAerpZAsbV6wD2PN79zzCFA7LY+v8vHhcCc91RA
lpc_rms=-17.67
sample=Bassflute_sustain_FF_C4.opus

<region>
hivel=127
key=C5
lovel=0
lpc=w3UjQaFeoMHaG3hBQCYxwQb+JEF7p6jAq+ZQPgQNFkDyQZu/++myvz2MZT+19ku/Eh+OQILhyMAf25VA4TUwwIlLWj96rO4+ABh+v7tkL0AkLg/APu4WPkkNIr7o3i8/
lpc_rms=-26.30
sample=Bassflute_sustain_FF_C5.opus

<region>
hivel=127
key=C6
lovel=0
lpc=k6mlQRLqQ8GUnEFBJEc0wUnJ80Dr612/XRoaP2zs3r9J1JhAblYRwPxWPUDrCpDAtHzVQBuMZMCYFro/d09VPzDRB0BotrK/aR84vKhrUz9tvCJAW0dJv6DL2sArN7DA
lpc_rms=-16.13
sample=Bassflute_sustain_FF_C6.opus

<region>
hivel=127
key=D#3
lovel=0
lpc=VlH7QUruTsL2B4NBqsddwY0srUGWeYdALr4GwaWTuD+NZqRAYqyiwDtGab+dVhHADUt7QMl59MA0MKFAiDbOP5CJjL63K3+/mBJpP4C3QkDcYTTA5pjDPQ1FM8Aj0w1A
lpc_rms=-28.89
sample=Bassflute_sustain_FF_D#3.opus

<region>
hivel=127
key=D#4
lovel=0
lpc=eLWDQV2bxMERvDVBZQNywZ3yNUF2q3JAPYBgwDZoJED9V6E/qMPMvhoEq78kAjvAL6s+QA8OtcBl7MFA8TBKwMGivT+iuS8/9cQNvha5T0AvJBfA4e28vxHXEMDtMzlA
lpc_rms=-23.79
sample=Bassflute_sustain_FF_D#4.opus

<region>
hivel=127
key=D#5
lovel=0
lpc=mAajQQFg4cGcJ3ZB8GaNwWqGmEF5F87AXWDYP9UyvcAKFjdBuYLXwAwIVUDucxPB7i5QQU4DzcDMlX5AFdd/wELCgr3qHBJAz5dKP+k6bj9O66m/65mivxhK8L8z3aZA
lpc_rms=-17.70
sample=Bassflute_sustain_FF_D#5.opus

<region>
hivel=127
key=D3
lovel=0
lpc=sNo6QsAUtMJOc0dCnmEawqgmOELAIxFA1Hy2wex3BkEsweJAXhgFwWSkV8CbcfjAYQuCQZjxIMH+ThxBY8m0wBSbHcA4YYBAKufmPgReN79hGSFAk37EwM7vtD96NrU/
lpc_rms=-27.92
sample=Bassflute_sustain_FF_D3.opus

<region>
hivel=127
key=D4
lovel=0
lpc=TKxyQZVExcGIaUZBtj18wevdgEGhno0/JauLwLyhEz/yZR9A2Zfyv0NsL78jisrAqabjQNw6B8CQPpVAOT+fwPz+/T95dSW+yw0yvtJGSD/1t+a/1kh0PwDMbr86MGg/
lpc_rms=-24.75
sample=Bassflute_sustain_FF_D4.opus

<region>
hivel=127
key=D5
lovel=0
lpc=PAQ7QWy1p8Ef00NBylPPwINW40CoJj7ARVyIPp6RkD7tqDJAYgBbwNNuoL8P4SC+AtCvQHrsxsCb44pAFL/Cv9+2iT87opy/BS53PrFbOz/rjWe+akSiPMmVy7+w4PE/
lpc_rms=-22.48
sample=Bassflute_sustain_FF_D5.opus

<region>
hivel=127
key=E3
lovel=0
lpc=K1sZQmNRh8J33cJBl1uLwQIiCkJnAnFAOgqyweutREBrenBBUX/OwDQKWsE2P5HAoOyaQQam1L/T4Ki/SHQdwRSwjUBe27JA4EDiv7/ZQsB1yJc/aTKhPwqJiL8x1UA9
lpc_rms=-24.31
sample=Bassflute_sustain_FF_E3.opus

<region>
hivel=127
key=E4
lovel=0
lpc=97GzQWv1DcLatpRB1bDGwTabvUHseeM/Kkm3wAvZbT6zUDdAlkBBv8WTxL5tAfXA5iCyQLGQRcBr3+lA/BLgwOgMhkBezaK/kY7tP5BVIUDeI+PAjclFQPZgosAdBqpA
lpc_rms=-24.87
sample=Bassflute_sustain_FF_E4.opus

<region>
hivel=127
key=E5
lovel=0
lpc=G1lUQRddW8GinltATIoBwapa4UAku/8/UFkcPvuVc7+TwHVALd8GwDhtEb9iR3zAm1qUQLUF478dxiRAMCWev/iylD88RL4/1SMEP4qxsL+TdJ2/JV1ov18fFj9zRFlA
lpc_rms=-21.08
sample=Bassflute_sustain_FF_E5.opus

<region>
hivel=127
key=F#3
lovel=0
lpc=u+/xQTttWcKntdJBTBOIwTkmjkFzEYRASegfwaybp0C6RY8/QBOiwGL0vUCbCBfBULgjQdP0PsFURRJBl+sjP9kynsAxjtk/cSv8PwQLg7/KjB9APhKhwONRyD8Riwk/
lpc_rms=-24.63
sample=Bassflute_sustain_FF_F#3.opus

<region>
hivel=127
key=F#4
lovel=0
lpc=LiBgQeW2r8Ewoh1BXDQowQYbN0Gaxvi/XN68vpzUo79OCpxA1/ChwE+N7T+G6c+/DvGaQAGWvcArmkZALyJIwC0VK0CB2ALANEonQAbqBr6tzTg/2cYswE572z5AVG4/
lpc_rms=-25.81
sample=Bassflute_sustain_FF_F#4.opus

<region>
hivel=127
key=F#5
lovel=0
lpc=sx+kQVetr8GMPHVB7Ql8wZOhVEEMSR3AuosQwGeE6r9FEPpAhcLJvwfhpEC8xwTBfu8XQTa3fcB2MrA/EReAPl9JUj/s2O4/VHNgv30ZiL8wGC5ACWonQLxZrb71nShA
lpc_rms=-16.90
sample=Bassflute_sustain_FF_F#5.opus

<region>
hivel=127
key=F3
lovel=0
lpc=PeAOQoOVlML9PFtCZ4cnwomUFEJcgdXA/w9QwRWCmkHzJx/BhOJ3QLZZNcEekm5ArpD3QJ5PScGqaUVBx+efwHDaIsAlgIpA/XvCvk1fsj5DY7o/t5f2wDIfw0BRlZC/
lpc_rms=-26.79
sample=Bassflute_sustain_FF_F3.opus

<region>
hivel=127
key=F4
lovel=0
lpc=+2rFQZpDI8Ibx7BB0Ba1wQTYzUGNRPzAKtSMP/2qgcCdzfpA76sYwXiMhkALBzLAM6wSQSv9HMG4h6dAcS2qwClI30A6FrbAd/6PQAFOJMCHaco/MRWYwBH/AkCLegNA
lpc_rms=-22.61
sample=Bassflute_sustain_FF_F4.opus

<region>
hivel=127
key=F5
lovel=0
lpc=dL69QZca/8Fw4GBBiYUMwSi5XEHzwCrAusDGwN3jTz9V/xhBJ0evwDk4REAdYhTBf8pTQeAmr8AovbE/tP4pQJ2Ej8C946M/bcsbQOiGFEDgXB+/SgVawJAkqD99eolA
lpc_rms=-15.16
sample=Bassflute_sustain_FF_F5.opus

<region>
hivel=127
key=G#3
lovel=0
lpc=XiSSQlCYFcOlP7hCZLxgwoONi0IRiu/BWSV9QF8DcsAOTo5Bxdr2wbkDs0EPVqXBkQkAQtwpLcKpNNdB0Aasvz+bNMGXnwZB4MdEQcZ6Q8Gl3cdAS0kqwRfZfkB72ZU/
lpc_rms=-18.10
sample=Bassflute_sustain_FF_G#3.opus

<region>
hivel=127
key=g#4
lovel=0
lpc=vyiXQf2948H9gIpBPcuTwemvkEEEOIjAuyNGwCBunT/J3gZA4DAOwLcCMr8AyzS/fT3DQNFVv8B25mxAzfKqwMtKuUA+okbA7IYIuVOoHUBoWF/Ai7vTPzRKGMA7dYBA
lpc_rms=-24.48
sample=Bassflute_sustain_FF_G#4.opus

<region>
hivel=127
key=G#5
lovel=0
lpc=noX4QThsDMIHMrZBbZDHwdK1pEHk7W3AQYPvPj7uvcBlmEFBjlx7wFAUl0AJEh7Bx+8EQRtRWz9GMKlAu+zFPU03R8CGVpO9oRaFPilcoUANFs49YVS5P9qPTsAq1ihA
lpc_rms=-11.19
sample=Bassflute_sustain_FF_G#5.opus

<region>
hivel=127
key=G3
lovel=0
lpc=GzdCQo7zy8I6kYdCr+kxwmgWUkLKtJPBUhmgwFdHwT4UPrJA65/RwA5QB0FX3VfBa+KHQWoc5sEM3rZBZCkzwEOmVsCJmIZAYLykv1eqtz4NHTO/w06rvzGTvr9SmxNA
lpc_rms=-21.05
sample=Bassflute_sustain_FF_G3.opus

<region>
hivel=127
key=G4
lovel=0
lpc=4B1rQWnz0sGRpnJBXVJKwa1VWEG4nh7A7IQswJea1T82uB1ASS8UwAOSzzx9ZRDA2UeTQBACAMENqtdAj6I9wIIj6z9K9ag/lusBwO/kqT8j2ai+vnDovxhDOD895AY/
lpc_rms=-25.99
sample=Bassflute_sustain_FF_G4.opus

<region>
hivel=127
key=G5
lovel=0
lpc=gD89Qfh8ZMHTOQZBcXp8wG2/ckCwBvy90UIGP3tCUb40nDpAen5LwFvnY0BJ0NW/bRWGQBCScsBFLQpAsc0fQJAPur/cQXU9jXfBP5Q85D/PY4O/Tc2DvQKF1D5FzEJA
lpc_rms=-20.87
sample=Bassflute_sustain_FF_G5.opus

